<!DOCTYPE svg PUBLIC "-//W3C//DTD SVG 1.1//EN" "http://www.w3.org/Graphics/SVG/1.1/DTD/svg11.dtd">

<!-- Uploaded to: SVG Repo, www.svgrepo.com, Transformed by: SVG Repo Mixer Tools -->
<svg fill="#000000" version="1.1" id="Layer_1"
     xmlns="http://www.w3.org/2000/svg"
     xmlns:xlink="http://www.w3.org/1999/xlink" viewBox="0 0 512 512" xml:space="preserve" width="100px" height="100px">

     <g id="SVGRepo_bgCarrier" stroke-width="0"/>

     <g id="SVGRepo_tracerCarrier" stroke-linecap="round" stroke-linejoin="round"/>

     <g id="SVGRepo_iconCarrier">
          <g>
               <g>
                    <rect x="135.917" y="64.043" width="240.163" height="15.663"/>
               </g>
          </g>
          <g>
               <g>
                    <path fill="#fb4760" stroke-width="0" d="M80.054,135.745h47.685V0H80.054V135.745z M95.718,15.664h16.358v104.418H95.718V15.664z"/>
               </g>
          </g>
          <g>
               <g>
                    <path fill="#fb4760" stroke-width="0" d="M384.26,0v135.745h47.686V0H384.26z M416.282,120.082h-16.359V15.664h16.359V120.082z"/>
               </g>
          </g>
          <g>
               <g>
                    <polygon points="440.125,64.044 440.125,79.707 496.337,79.707 496.337,161.66 459.651,161.66 459.651,177.323 496.337,177.323 496.337,496.337 15.664,496.337 15.664,177.323 44.046,177.323 44.046,161.66 15.664,161.66 15.664,79.707 71.876,79.707 71.876,64.044 0,64.044 0,512 512,512 512,64.044 "/>
               </g>
          </g>
          <g>
               <g>
                    <rect x="69.107" y="161.658" width="366.526" height="15.664"/>
               </g>
          </g>
          <g>
               <g>
                    <rect x="156.823" y="112.579" width="191.095" height="15.663"/>
               </g>
          </g>
          <g>
               <g>
                    <rect x="69.107" y="272.346" width="30.283" height="15.664"/>
               </g>
          </g>
          <g>
               <g>
                    <rect x="123.407" y="272.346" width="33.415" height="15.664"/>
               </g>
          </g>
          <g>
               <g>
                    <rect x="236.185" y="272.346" width="31.327" height="15.664"/>
               </g>
          </g>
          <g>
               <g>
                    <rect x="290.485" y="272.346" width="33.415" height="15.664"/>
               </g>
          </g>
          <g>
               <g>
                    <rect x="347.918" y="272.346" width="32.371" height="15.664"/>
               </g>
          </g>
          <g>
               <g>
                    <rect x="405.35" y="272.346" width="30.283" height="15.664"/>
               </g>
          </g>
          <g>
               <g>
                    <rect x="69.107" y="328.735" width="30.283" height="15.664"/>
               </g>
          </g>
          <g>
               <g>
                    <rect x="123.407" y="328.735" width="33.415" height="15.664"/>
               </g>
          </g>
          <g>
               <g>
                    <rect x="179.796" y="328.735" width="32.371" height="15.664"/>
               </g>
          </g>
          <g>
               <g>
                    <rect x="236.185" y="328.735" width="31.327" height="15.664"/>
               </g>
          </g>
          <g>
               <g>
                    <rect x="347.918" y="328.735" width="32.371" height="15.664"/>
               </g>
          </g>
          <g>
               <g>
                    <rect x="405.35" y="328.735" width="30.283" height="15.664"/>
               </g>
          </g>
          <g>
               <g>
                    <rect x="123.407" y="386.168" width="33.415" height="15.664"/>
               </g>
          </g>
          <g>
               <g>
                    <rect x="179.796" y="386.168" width="32.371" height="15.664"/>
               </g>
          </g>
          <g>
               <g>
                    <rect x="236.185" y="386.168" width="31.327" height="15.664"/>
               </g>
          </g>
          <g>
               <g>
                    <rect x="290.485" y="386.168" width="33.415" height="15.664"/>
               </g>
          </g>
          <g>
               <g>
                    <rect x="347.918" y="386.168" width="32.371" height="15.664"/>
               </g>
          </g>
          <g>
               <g>
                    <rect x="69.107" y="440.468" width="30.283" height="15.664"/>
               </g>
          </g>
          <g>
               <g>
                    <rect x="123.407" y="440.468" width="33.415" height="15.664"/>
               </g>
          </g>
          <g>
               <g>
                    <rect x="290.485" y="440.468" width="33.415" height="15.664"/>
               </g>
          </g>
          <g>
               <g>
                    <rect x="347.918" y="440.468" width="32.371" height="15.664"/>
               </g>
          </g>
          <g>
               <g>
                    <rect x="405.35" y="440.468" width="30.283" height="15.664"/>
               </g>
          </g>
          <g>
               <g>
                    <polygon fill="#fb4760" stroke-width="0" points="218.441,250.462 191.957,276.946 181.484,266.474 170.407,277.549 191.957,299.098 229.516,261.539 "/>
               </g>
          </g>
          <g>
               <g>
                    <polygon fill="#fb4760" stroke-width="0" points="330.516,306.5 304.033,332.984 293.56,322.511 282.484,333.587 304.033,355.135 341.593,317.576 "/>
               </g>
          </g>
          <g>
               <g>
                    <polygon fill="#fb4760" stroke-width="0" points="114.37,362.538 87.886,389.022 77.413,378.549 66.337,389.625 87.886,411.173 125.446,373.614 "/>
               </g>
          </g>
          <g>
               <g>
                    <polygon fill="#fb4760" stroke-width="0" points="442.593,362.538 416.108,389.022 405.635,378.549 394.56,389.625 416.108,411.173 453.668,373.614 "/>
               </g>
          </g>
          <g>
               <g>
                    <polygon fill="#fb4760" stroke-width="0" points="218.441,418.577 191.957,445.059 181.484,434.587 170.407,445.663 191.957,467.211 229.516,429.652 "/>
               </g>
          </g>
          <g>
               <g>
                    <polygon fill="#fb4760" stroke-width="0" points="282.484,418.577 256,445.059 245.526,434.587 234.451,445.663 256,467.211 293.56,429.652 "/>
               </g>
          </g>
          <g>
               <g>
                    <rect x="172.486" y="209.692" width="158.723" height="15.664"/>
               </g>
          </g>
     </g>

</svg>