<?xml version="1.0" encoding="utf-8"?>
<!-- Generator: Adobe Illustrator 26.0.2, SVG Export Plug-In . SVG Version: 6.00 Build 0)  -->
<svg version="1.1" id="Layer_1" xmlns="http://www.w3.org/2000/svg" xmlns:xlink="http://www.w3.org/1999/xlink" x="0px" y="0px"
	 viewBox="0 0 100 30" style="enable-background:new 0 0 100 30;" xml:space="preserve">
<style type="text/css">
	.st0{fill-rule:evenodd;clip-rule:evenodd;fill:url(#SVGID_1_);}
</style>
<path d="M32.3,11.5l-1.2,1.1c-0.7-0.8-1.7-1.3-2.7-1.3c-1.7,0-3,1.3-3,3c0,0,0,0,0,0.1c0,0.6,0.1,1.1,0.4,1.6
	c0.3,0.5,0.6,0.8,1.1,1.1c0.5,0.3,1,0.4,1.6,0.4c0.5,0,0.9-0.1,1.4-0.3c0.5-0.3,1-0.6,1.4-1l1.1,1.2c-0.5,0.6-1.2,1-1.9,1.4
	c-0.6,0.3-1.3,0.4-2,0.4c-2.5,0.1-4.6-1.8-4.7-4.3c0-0.1,0-0.3,0-0.4c0-0.8,0.2-1.7,0.6-2.4c0.4-0.7,1-1.3,1.7-1.7
	c0.7-0.4,1.6-0.6,2.4-0.6c0.7,0,1.5,0.2,2.1,0.5C31.2,10.5,31.9,10.9,32.3,11.5z"/>
<path d="M33.3,12.3h1.4v0.8c0.1-0.3,0.3-0.6,0.6-0.8c0.2-0.2,0.5-0.3,0.8-0.3c0.2,0,0.5,0.1,0.7,0.2l-0.5,1.4
	c-0.1-0.1-0.3-0.1-0.5-0.1c-0.3,0-0.5,0.2-0.7,0.5c-0.2,0.6-0.3,1.2-0.3,1.9v3h-1.6V12.3z"/>
<path d="M36.9,12.3h1.7l1.7,4.2l1.9-4.2h1.7l-4.2,9h-1.7l1.4-2.9L36.9,12.3z"/>
<path d="M48.9,13.2l-1,1c-0.3-0.3-0.7-0.6-1.1-0.6c-0.2,0-0.3,0-0.4,0.1c-0.1,0.1-0.2,0.2-0.2,0.3c0,0.1,0,0.2,0.1,0.2
	c0.2,0.1,0.3,0.2,0.5,0.3l0.6,0.3c0.5,0.2,1,0.6,1.3,1c0.2,0.3,0.4,0.7,0.3,1.2c0,0.6-0.2,1.1-0.7,1.5c-0.5,0.4-1.1,0.6-1.7,0.6
	c-0.9,0-1.8-0.4-2.3-1.1l1-1.1c0.2,0.2,0.4,0.4,0.7,0.5c0.2,0.1,0.5,0.2,0.7,0.2c0.2,0,0.4,0,0.5-0.2c0.1-0.1,0.2-0.2,0.2-0.4
	c0-0.3-0.2-0.5-0.7-0.8L46.2,16c-1.1-0.5-1.6-1.2-1.6-2c0-0.5,0.2-1,0.6-1.3c0.4-0.4,1-0.6,1.5-0.6c0.4,0,0.8,0.1,1.2,0.3
	C48.4,12.6,48.7,12.8,48.9,13.2z"/>
<path d="M50.6,9.8h1.7v2.4h1v1.4h-1v5.2h-1.7v-5.2h-0.8v-1.4h0.8V9.8z"/>
<path d="M59,12.3h1.7v6.6H59v-0.7c-0.3,0.3-0.6,0.5-1,0.7c-0.3,0.1-0.7,0.2-1.1,0.2c-0.8,0-1.7-0.4-2.2-1c-0.6-0.7-1-1.6-0.9-2.5
	c0-0.9,0.3-1.8,0.9-2.5c0.6-0.6,1.4-1,2.2-1c0.4,0,0.8,0.1,1.1,0.2c0.4,0.2,0.7,0.4,1,0.7V12.3z M57.2,13.6c-0.5,0-1,0.2-1.3,0.5
	c-0.3,0.4-0.5,0.9-0.5,1.4c0,0.5,0.2,1,0.5,1.4c0.3,0.4,0.8,0.6,1.3,0.5c0.5,0,1-0.2,1.3-0.5c0.4-0.4,0.5-0.9,0.5-1.4
	c0-0.5-0.2-1-0.5-1.4C58.2,13.8,57.7,13.6,57.2,13.6L57.2,13.6z"/>
<path d="M62.2,9.7h1.7v9.2h-1.7V9.7z"/>
<path d="M67.7,9.8h0.8v2.5h1.4V13h-1.4v5.9h-0.8V13h-1.2v-0.7h1.2V9.8z"/>
<path d="M70.8,12.3h0.9v1c0.2-0.3,0.5-0.6,0.8-0.9c0.3-0.2,0.6-0.3,0.9-0.3c0.3,0,0.5,0.1,0.8,0.2l-0.4,0.7C73.6,13,73.5,13,73.3,13
	c-0.3,0-0.6,0.1-0.8,0.4c-0.3,0.3-0.5,0.7-0.6,1.1c-0.1,0.8-0.2,1.5-0.2,2.3v2.2h-0.9V12.3z"/>
<path d="M81.5,12.3v6.6h-0.8v-1.1c-0.3,0.4-0.7,0.8-1.2,1c-1.3,0.6-2.9,0.3-3.9-0.8c-0.7-0.7-1-1.6-1-2.5c0-0.9,0.3-1.8,1-2.4
	c0.6-0.7,1.5-1,2.4-1c0.5,0,1,0.1,1.5,0.4c0.5,0.2,0.9,0.6,1.2,1v-1.2H81.5z M78.1,12.9c-0.5,0-0.9,0.1-1.3,0.4
	c-0.4,0.2-0.8,0.6-1,1c-0.2,0.4-0.4,0.9-0.4,1.3c0,0.5,0.1,0.9,0.4,1.3c0.5,0.8,1.3,1.3,2.3,1.4c0.5,0,0.9-0.1,1.3-0.4
	c0.4-0.2,0.8-0.6,1-1c0.2-0.4,0.3-0.9,0.3-1.4c0-0.7-0.2-1.4-0.7-1.9C79.5,13.2,78.8,12.9,78.1,12.9z"/>
<path d="M82.8,12.3h0.9l2.3,4.8l2.2-4.8h0.9l-3,6.6H86L82.8,12.3z"/>
<path d="M95.9,16.7l0.7,0.4c-0.2,0.4-0.5,0.8-0.8,1.1c-0.3,0.3-0.6,0.5-1,0.6c-0.4,0.2-0.9,0.2-1.3,0.2c-1,0.1-1.9-0.3-2.6-1.1
	c-1.2-1.3-1.2-3.3-0.1-4.6c0.6-0.8,1.6-1.3,2.6-1.3c1.1,0,2.1,0.4,2.7,1.3c0.5,0.6,0.8,1.4,0.7,2.3h-6c0,0.7,0.2,1.4,0.7,1.9
	c0.5,0.5,1.1,0.7,1.8,0.7c0.3,0,0.7-0.1,1-0.2c0.3-0.1,0.6-0.3,0.8-0.5C95.5,17.4,95.7,17,95.9,16.7z M95.9,14.9
	c-0.1-0.4-0.3-0.8-0.5-1.1c-0.2-0.3-0.5-0.5-0.9-0.6c-0.4-0.2-0.7-0.3-1.1-0.2c-0.6,0-1.2,0.2-1.7,0.6c-0.4,0.4-0.6,0.9-0.8,1.4
	L95.9,14.9z"/>
<path d="M98.3,9.7h0.8v9.2h-0.8V9.7z"/>
<linearGradient id="SVGID_1_" gradientUnits="userSpaceOnUse" x1="3.22" y1="10.29" x2="15.94" y2="23.01" gradientTransform="matrix(1 0 0 -1 0 32)">
	<stop  offset="0" style="stop-color:#F40F4C"/>
	<stop  offset="1" style="stop-color:#FF6E6E"/>
</linearGradient>
<path class="st0" d="M1.2,5.1h17.4c0.7,0,1.2,0.6,1.2,1.2v17.4c0,0.7-0.6,1.2-1.3,1.2c-0.3,0-0.6-0.1-0.9-0.4l-4.4-4.4l3.9-3.9
	c0.5-0.5,0.5-1.3,0-1.8c-0.5-0.5-1.3-0.5-1.8,0l0,0l-4.9,4.9c-0.5,0.4-1.2,0.4-1.6-0.1c-0.4-0.4-0.4-1.1,0-1.5l8.2-8.2
	C17.6,9,17.6,8.2,17,7.8c-0.5-0.4-1.2-0.4-1.6,0L3.8,19.4c-0.4,0.4-1.2,0.4-1.6,0s-0.4-1.2,0-1.6l8.2-8.2c0.5-0.5,0.5-1.3,0-1.8
	c-0.5-0.5-1.3-0.5-1.8,0l-3.9,3.9L0.4,7.2c-0.5-0.5-0.5-1.3,0-1.8C0.6,5.2,0.9,5.1,1.2,5.1z"/>
</svg>
