<svg xmlns="http://www.w3.org/2000/svg" viewBox="0 0 480 480"><path fill="none" stroke="#7d8395" stroke-linecap="round" stroke-linejoin="round" stroke-width="6" d="M122.42,184.89s0-13.18,2.99-30.79"/><path fill="none" stroke="#7d8395" stroke-linecap="round" stroke-linejoin="round" stroke-width="6" d="M113.81,187.3s-6.44-11.55-3.44-29.16"/><path fill="#e0e0e0" d="M374.68,209.5H203.82c-5.59,0-10.12,4.53-10.12,10.12v111.16c0,5.59,4.53,10.12,10.12,10.12h170.86c5.59,0,10.12-4.53,10.12-10.12v-111.16c0-5.59-4.53-10.12-10.12-10.12Z"/><path fill="#fff" d="M354.8,235.53H223.7c-2.47,0-4.47,2-4.47,4.47v66.41c0,2.47,2,4.47,4.47,4.47h131.1c2.47,0,4.47-2,4.47-4.47v-66.41c0-2.47-2-4.47-4.47-4.47Z"/><path fill="#7d8395" d="M318.28,191.26h-58.06c-2.79,0-5.06,2.26-5.06,5.06v2.26c0,2.79,2.26,5.06,5.06,5.06h58.06c2.79,0,5.06-2.26,5.06-5.06v-2.26c0-2.79-2.27-5.06-5.06-5.06Z"/><path fill="#e0e0e0" d="M351.84,95.51h-125.19c-5.59,0-10.12,4.53-10.12,10.12v69.64c0,5.59,4.53,10.12,10.12,10.12h125.19c5.59,0,10.12-4.53,10.12-10.12V105.63c0-5.59-4.53-10.12-10.12-10.12Z"/><path fill="#fff" d="M347.3,162.34v-43.78c0-4.63-3.76-8.39-8.39-8.39h-99.32c-4.63,0-8.39,3.76-8.39,8.39v43.78c0,4.63,3.76,8.39,8.39,8.39h99.32c4.63,0,8.39-3.76,8.39-8.39Z"/><path fill="none" stroke="#7d8395" stroke-linecap="round" stroke-linejoin="round" stroke-width="4" d="M269.22,157.31c14.14-14.14,27.45-13.35,40.06,0"/><path fill="#e0e0e0" d="M363.09,142.64l2.14,3.71,24.41-14.09-2.14-3.71-24.41,14.1Z"/><path fill="#e0e0e0" d="M388.45,119.81c-3.78,2.18-5.43,6.63-4.24,10.64,.2,.68,.49,1.34,.86,1.98,2.55,4.42,8.2,5.93,12.62,3.38,4.42-2.55,5.93-8.2,3.38-12.62-2.55-4.42-8.2-5.93-12.62-3.38Z"/><path fill="#7d8395" d="M364.51,158.82h-2.54v-37.65h2.54c5.03,0,9.12,4.09,9.12,9.12v19.42c0,5.03-4.09,9.12-9.12,9.12h0Z"/><path fill="#e0e0e0" d="M191.2,128.55l-2.14,3.71,24.41,14.09,2.14-3.71-24.41-14.1Z"/><path fill="#e0e0e0" d="M190.25,119.81c3.78,2.18,5.43,6.63,4.24,10.64-.2,.68-.49,1.34-.86,1.98-2.55,4.42-8.2,5.93-12.62,3.38-4.42-2.55-5.93-8.2-3.38-12.62,2.55-4.42,8.2-5.93,12.62-3.38Z"/><path fill="#7d8395" d="M214.19,121.17h2.54v37.65h-2.54c-5.03,0-9.12-4.09-9.12-9.12v-19.42c0-5.03,4.09-9.12,9.12-9.12h0Z"/><path fill="none" stroke="#e0e0e0" stroke-linecap="round" stroke-miterlimit="10" stroke-width="26" d="M205.07,269.7c-40.65,0-81.29,5.51-81.29-78.44"/><path fill="#0d85e1" d="M166.33,175.4h-5.37c-3.67,0-6.64-2.97-6.64-6.64v-.59c0-3.67,2.97-6.64,6.64-6.64h5.37c1.96,0,3.54-1.59,3.54-3.54v-2.84c0-1.96-1.59-3.54-3.54-3.54h-7.61c-7.37,0-13.35,5.98-13.35,13.35v7.02c0,7.37,5.98,13.35,13.35,13.35h7.61c1.96,0,3.54-1.59,3.54-3.54v-2.84c0-1.96-1.59-3.54-3.54-3.54h0Z"/><path fill="#0d85e1" d="M81.23,161.53h5.37c3.67,0,6.64,2.97,6.64,6.64v.59c0,3.67-2.97,6.64-6.64,6.64h-5.37c-1.95,0-3.54,1.58-3.54,3.54v2.84c0,1.96,1.59,3.54,3.54,3.54h7.61c7.37,0,13.35-5.98,13.35-13.35v-7.02c0-7.37-5.98-13.35-13.35-13.35h-7.61c-1.95,.01-3.54,1.59-3.54,3.55v2.84c0,1.96,1.59,3.54,3.54,3.54h0Z"/><path fill="#0d85e1" d="M147.38,175.86v-14.79h-47.18v14.79h47.18Z"/><path fill="#fff" d="M133.36,171.71c1.79,0,3.25-1.45,3.25-3.24s-1.46-3.24-3.25-3.24h-19.15c-1.79,0-3.25,1.45-3.25,3.24s1.46,3.24,3.25,3.24h19.15Z"/><path fill="none" stroke="#7d8395" stroke-linecap="round" stroke-linejoin="round" stroke-width="3.66" d="M111.96,216.29c9.61,2.26,18.58,1.62,26.81-2.29"/><path fill="none" stroke="#7d8395" stroke-linecap="round" stroke-linejoin="round" stroke-width="3.66" d="M174,255.94c1.36,8.96,.33,17.49-4.12,25.39"/><path fill="none" stroke="#7d8395" stroke-linecap="round" stroke-linejoin="round" stroke-width="3.66" d="M147.37,242.64c-4.9,8.2-11.92,13.17-21.07,14.9"/><path fill="none" stroke="#7d8395" stroke-linecap="round" stroke-linejoin="round" stroke-width="6" d="M131.94,186.14s9.27-9.54,2.95-28"/><path fill="#0d85e1" fill-rule="evenodd" d="M322.43,260.83l-1.07-3.3-4.43-.03-1.66-1.95,.59-4.39-3.09-1.58-3.13,3.09-2.55-.2-2.7-3.51-3.3,1.07v4.43l-2,1.67-4.39-.59-1.58,3.09,3.09,3.13-.2,2.55-3.51,2.68,1.06,3.28,4.43,.03,1.66,1.95-.59,4.39,3.09,1.58,3.13-3.09,2.55,.2,2.7,3.51,3.28-1.06v-4.43l2-1.67,4.39,.59,1.58-3.09-3.11-3.13,.24-2.56,3.51-2.7v.04h.01Zm-12.96,9.27c-3.43,1.11-7.09-.77-8.2-4.2-1.11-3.43,.77-7.09,4.2-8.2,3.43-1.11,7.09,.77,8.2,4.2,1.11,3.43-.77,7.09-4.2,8.2Z"/><path fill="#0d85e1" d="M256.07,276.95l.13,1.04,11.2-1.47c.04-3.19,1.89-6.04,4.68-7.41l-.41-11.68-.62,.08-1.08,5.61-2.93,1.64-5.42-1.8-2.75,3.53,3.16,4.71-.87,3.19-5.1,2.56h.01Z"/><path fill="#0d85e1" d="M291.87,279.91l5.09-2.59-.55-4.39-5.61-1.1-1.63-2.87,1.8-5.42-3.53-2.75-4.71,3.16-3.19-.87-2.59-5.09-.45,11.33c4.49-.4,8.51,2.8,9.08,7.31,.58,4.61-2.68,8.8-7.29,9.38-4.48,.56-8.55-2.5-9.31-6.9l-11.09,1.77,.19,1.51,5.61,1.1,1.63,2.87-1.8,5.42,3.53,2.75,4.71-3.16,3.18,.87,2.59,5.09,4.42-.55,1.08-5.61,2.93-1.64,5.42,1.8,2.75-3.53-3.19-4.71,.93-3.19h0Z"/><path fill="#e0e0e0" d="M285.4,365.19h7.71v-28.19h-7.71v28.19Z"/><path fill="#7d8395" d="M289.25,384.49c7.78,0,14.09-6.31,14.09-14.09s-6.31-14.09-14.09-14.09-14.09,6.31-14.09,14.09,6.31,14.09,14.09,14.09Z"/><path fill="#7d8395" d="M270.31,139.18c4.98,0,9.01-4.03,9.01-9.01s-4.03-9.01-9.01-9.01-9.01,4.03-9.01,9.01,4.03,9.01,9.01,9.01Z"/><path fill="#7d8395" d="M308.19,139.18c4.98,0,9.01-4.03,9.01-9.01s-4.03-9.01-9.01-9.01-9.01,4.03-9.01,9.01,4.03,9.01,9.01,9.01Z"/></svg>